<svg width="328" height="364" viewBox="0 0 328 364" fill="none" xmlns="http://www.w3.org/2000/svg">
<path d="M13 139H316V298C316 332.242 288.242 360 254 360H75C40.7584 360 13 332.242 13 298V139Z" fill="white"/>
<path d="M0 84C0 57.4903 21.4903 36 48 36H280C306.51 36 328 57.4903 328 84V152H0V84Z" fill="#EF4037"/>
<path fill-rule="evenodd" clip-rule="evenodd" d="M244.839 205.839C249.72 200.957 249.72 193.043 244.839 188.161C239.957 183.28 232.043 183.28 227.161 188.161L150 265.322L116.75 232.073C111.869 227.191 103.954 227.191 99.0728 232.073C94.1912 236.954 94.1912 244.869 99.0728 249.75L141.073 291.75C145.859 296.536 153.559 296.63 158.46 292.032C158.941 291.674 159.402 291.276 159.839 290.839L244.839 205.839Z" fill="black"/>
<path d="M244.839 188.161L245.899 187.101L245.899 187.101L244.839 188.161ZM244.839 205.839L245.899 206.899L245.899 206.899L244.839 205.839ZM227.161 188.161L226.101 187.101L226.101 187.101L227.161 188.161ZM150 265.322L148.939 266.383L150 267.444L151.061 266.383L150 265.322ZM99.0728 232.073L100.133 233.133L100.133 233.133L99.0728 232.073ZM99.0728 249.75L100.133 248.69L100.133 248.69L99.0728 249.75ZM141.073 291.75L142.133 290.69L142.133 290.69L141.073 291.75ZM158.46 292.032L157.563 290.83L157.495 290.88L157.433 290.938L158.46 292.032ZM159.839 290.839L158.778 289.778L159.839 290.839ZM243.778 189.222C248.074 193.518 248.074 200.482 243.778 204.778L245.899 206.899C251.367 201.432 251.367 192.568 245.899 187.101L243.778 189.222ZM228.222 189.222C232.518 184.926 239.482 184.926 243.778 189.222L245.899 187.101C240.432 181.633 231.568 181.633 226.101 187.101L228.222 189.222ZM151.061 266.383L228.222 189.222L226.101 187.101L148.939 264.262L151.061 266.383ZM115.69 233.133L148.939 266.383L151.061 264.262L117.811 231.012L115.69 233.133ZM100.133 233.133C104.429 228.838 111.394 228.838 115.69 233.133L117.811 231.012C112.344 225.545 103.479 225.545 98.0121 231.012L100.133 233.133ZM100.133 248.69C95.8377 244.394 95.8377 237.429 100.133 233.133L98.0121 231.012C92.5448 236.479 92.5448 245.344 98.0121 250.811L100.133 248.69ZM142.133 290.69L100.133 248.69L98.0121 250.811L140.012 292.811L142.133 290.69ZM157.433 290.938C153.122 294.984 146.345 294.901 142.133 290.69L140.012 292.811C145.372 298.171 153.997 298.276 159.486 293.126L157.433 290.938ZM158.778 289.778C158.393 290.164 157.986 290.514 157.563 290.83L159.356 293.235C159.895 292.833 160.411 292.388 160.899 291.899L158.778 289.778ZM243.778 204.778L158.778 289.778L160.899 291.899L245.899 206.899L243.778 204.778Z" fill="white"/>
<mask id="path-5-inside-1_2002_7199" fill="white">
<path fill-rule="evenodd" clip-rule="evenodd" d="M116.5 13C116.5 6.09644 110.904 0.5 104 0.5C97.0964 0.5 91.5 6.09644 91.5 13V36H48C21.4903 36 0 57.4903 0 84V127V152V316C0 342.51 21.4903 364 48 364H280C306.51 364 328 342.51 328 316V152V127V84C328 57.4903 306.51 36 280 36H233.5V13C233.5 6.09644 227.904 0.5 221 0.5C214.096 0.5 208.5 6.09644 208.5 13V36H116.5V13ZM91.5 61V85C91.5 91.9036 97.0964 97.5 104 97.5C110.904 97.5 116.5 91.9036 116.5 85V61H208.5V85C208.5 91.9036 214.096 97.5 221 97.5C227.904 97.5 233.5 91.9036 233.5 85V61H280C292.703 61 303 71.2974 303 84V127H25V84C25 71.2974 35.2974 61 48 61H91.5ZM25 152V316C25 328.703 35.2974 339 48 339H280C292.703 339 303 328.703 303 316V152H25Z"/>
</mask>
<path fill-rule="evenodd" clip-rule="evenodd" d="M116.5 13C116.5 6.09644 110.904 0.5 104 0.5C97.0964 0.5 91.5 6.09644 91.5 13V36H48C21.4903 36 0 57.4903 0 84V127V152V316C0 342.51 21.4903 364 48 364H280C306.51 364 328 342.51 328 316V152V127V84C328 57.4903 306.51 36 280 36H233.5V13C233.5 6.09644 227.904 0.5 221 0.5C214.096 0.5 208.5 6.09644 208.5 13V36H116.5V13ZM91.5 61V85C91.5 91.9036 97.0964 97.5 104 97.5C110.904 97.5 116.5 91.9036 116.5 85V61H208.5V85C208.5 91.9036 214.096 97.5 221 97.5C227.904 97.5 233.5 91.9036 233.5 85V61H280C292.703 61 303 71.2974 303 84V127H25V84C25 71.2974 35.2974 61 48 61H91.5ZM25 152V316C25 328.703 35.2974 339 48 339H280C292.703 339 303 328.703 303 316V152H25Z" fill="black"/>
<path d="M91.5 36V39H94.5V36H91.5ZM233.5 36H230.5V39H233.5V36ZM208.5 36V39H211.5V36H208.5ZM116.5 36H113.5V39H116.5V36ZM91.5 85L94.5 85V85H91.5ZM91.5 61H94.5V58H91.5V61ZM116.5 85L119.5 85V85H116.5ZM116.5 61V58H113.5V61H116.5ZM208.5 61H211.5V58H208.5V61ZM233.5 61V58H230.5V61H233.5ZM303 127V130H306V127H303ZM25 127H22V130H25V127ZM25 152V149H22V152H25ZM303 152H306V149H303V152ZM104 3.5C109.247 3.5 113.5 7.7533 113.5 13H119.5C119.5 4.43959 112.56 -2.5 104 -2.5V3.5ZM94.5 13C94.5 7.7533 98.7533 3.5 104 3.5V-2.5C95.4396 -2.5 88.5 4.43959 88.5 13H94.5ZM94.5 36V13H88.5V36H94.5ZM91.5 33H48V39H91.5V33ZM48 33C19.8335 33 -3 55.8335 -3 84H3C3 59.1472 23.1472 39 48 39V33ZM-3 84V127H3V84H-3ZM-3 127V152H3V127H-3ZM-3 152V316H3V152H-3ZM-3 316C-3 344.167 19.8335 367 48 367V361C23.1472 361 3 340.853 3 316H-3ZM48 367H280V361H48V367ZM280 367C308.167 367 331 344.167 331 316H325C325 340.853 304.853 361 280 361V367ZM331 316V152H325V316H331ZM331 152V127H325V152H331ZM331 127V84H325V127H331ZM331 84C331 55.8335 308.167 33 280 33V39C304.853 39 325 59.1472 325 84H331ZM280 33H233.5V39H280V33ZM236.5 36V13H230.5V36H236.5ZM236.5 13C236.5 4.43959 229.56 -2.5 221 -2.5V3.5C226.247 3.5 230.5 7.75329 230.5 13H236.5ZM221 -2.5C212.44 -2.5 205.5 4.43959 205.5 13H211.5C211.5 7.75329 215.753 3.5 221 3.5V-2.5ZM205.5 13V36H211.5V13H205.5ZM208.5 33H116.5V39H208.5V33ZM113.5 13V36H119.5V13H113.5ZM94.5 85V61H88.5V85H94.5ZM104 94.5C98.7533 94.5 94.5 90.2467 94.5 85L88.5 85C88.5 93.5604 95.4396 100.5 104 100.5V94.5ZM113.5 85C113.5 90.2467 109.247 94.5 104 94.5V100.5C112.56 100.5 119.5 93.5604 119.5 85L113.5 85ZM113.5 61V85H119.5V61H113.5ZM208.5 58H116.5V64H208.5V58ZM205.5 61V85H211.5V61H205.5ZM205.5 85C205.5 93.5604 212.44 100.5 221 100.5V94.5C215.753 94.5 211.5 90.2467 211.5 85H205.5ZM221 100.5C229.56 100.5 236.5 93.5604 236.5 85H230.5C230.5 90.2467 226.247 94.5 221 94.5V100.5ZM236.5 85V61H230.5V85H236.5ZM280 58H233.5V64H280V58ZM306 84C306 69.6406 294.359 58 280 58V64C291.046 64 300 72.9543 300 84H306ZM306 127V84H300V127H306ZM303 124H25V130H303V124ZM22 84V127H28V84H22ZM48 58C33.6406 58 22 69.6406 22 84H28C28 72.9543 36.9543 64 48 64V58ZM91.5 58H48V64H91.5V58ZM22 152V316H28V152H22ZM22 316C22 330.359 33.6406 342 48 342V336C36.9543 336 28 327.046 28 316H22ZM48 342H280V336H48V342ZM280 342C294.359 342 306 330.359 306 316H300C300 327.046 291.046 336 280 336V342ZM306 316V152H300V316H306ZM25 155H303V149H25V155Z" fill="white" mask="url(#path-5-inside-1_2002_7199)"/>
</svg>
